<svg width="147" height="30" viewBox="0 0 147 30" fill="none" xmlns="http://www.w3.org/2000/svg">
<g clip-path="url(#clip0_768_4985)">
<path fill-rule="evenodd" clip-rule="evenodd" d="M0 24.5551V1.55267H9.46441C10.91 1.55267 12.1859 1.84311 13.2922 2.42315C14.3985 3.00402 15.264 3.81989 15.8879 4.87159C16.5127 5.92328 16.8246 7.17108 16.8246 8.61747V9.07753C16.8246 10.5016 16.5011 11.7444 15.8548 12.8069C15.2086 13.8693 14.3323 14.691 13.226 15.2719C12.1197 15.8519 10.8661 16.1423 9.46359 16.1423H4.33751V24.5542H0V24.5551ZM115.387 0.000366211H138.459C142.924 0.000366211 146.576 3.65275 146.576 8.11851V21.7268C146.576 26.1918 142.924 29.845 138.459 29.845H115.387C110.922 29.845 107.269 26.1918 107.269 21.7268V8.11851C107.269 3.65357 110.923 0.000366211 115.387 0.000366211ZM118.924 24.5551C116.596 24.5551 114.743 23.9154 113.367 22.6362C111.991 21.3569 111.302 19.5266 111.302 17.1452V12.6993C111.302 10.3179 111.991 8.48756 113.367 7.20831C114.743 5.92907 116.596 5.29028 118.924 5.29028C121.253 5.29028 123.105 5.9299 124.481 7.20831C125.857 8.48756 126.546 10.3179 126.546 12.6993V17.1452C126.546 19.5274 125.858 21.3578 124.481 22.6362C123.105 23.9154 121.253 24.5551 118.924 24.5551ZM118.924 21.4322C120.23 21.4322 121.244 21.0533 121.967 20.2945C122.691 19.5357 123.052 18.5213 123.052 17.2511V12.5934C123.052 11.3232 122.691 10.3088 121.967 9.55001C121.243 8.79123 120.23 8.41226 118.924 8.41226C117.637 8.41226 116.626 8.79123 115.894 9.55001C115.162 10.3088 114.796 11.3232 114.796 12.5934V17.2511C114.796 18.5213 115.162 19.5357 115.894 20.2945C116.626 21.0533 117.637 21.4322 118.924 21.4322ZM135.53 24.5551C134.101 24.5551 132.839 24.2994 131.746 23.7872C130.652 23.2758 129.796 22.5435 129.179 21.5911C128.561 20.6387 128.253 19.4919 128.253 18.1506V17.41H131.693V18.1506C131.693 19.2618 132.037 20.0959 132.724 20.652C133.412 21.208 134.348 21.4852 135.529 21.4852C136.729 21.4852 137.625 21.2469 138.215 20.7711C138.806 20.2945 139.102 19.6863 139.102 18.9449C139.102 18.4336 138.956 18.019 138.666 17.7013C138.374 17.3835 137.951 17.1237 137.395 16.921C136.839 16.7174 136.165 16.5279 135.371 16.3517L134.762 16.2193C133.492 15.9371 132.403 15.5797 131.494 15.1477C130.585 14.7158 129.889 14.1465 129.404 13.4407C128.918 12.7349 128.676 11.8181 128.676 10.6886C128.676 9.55911 128.945 8.59347 129.483 7.79084C130.021 6.98821 130.78 6.37093 131.759 5.93817C132.738 5.50542 133.889 5.29028 135.213 5.29028C136.536 5.29028 137.714 5.51535 138.746 5.96465C139.778 6.41479 140.589 7.08502 141.18 7.97619C141.771 8.86736 142.066 9.98277 142.066 11.3241V12.1176H138.626V11.3241C138.626 10.6183 138.489 10.049 138.216 9.61703C137.942 9.18427 137.55 8.86736 137.039 8.66381C136.527 8.46108 135.918 8.3593 135.213 8.3593C134.154 8.3593 133.374 8.55789 132.871 8.95424C132.368 9.35142 132.117 9.89423 132.117 10.5818C132.117 11.0403 132.236 11.4292 132.475 11.7461C132.713 12.0638 133.069 12.3278 133.546 12.5404C134.023 12.7523 134.631 12.9376 135.372 13.0965L135.981 13.2289C137.304 13.511 138.455 13.8726 139.435 14.3137C140.414 14.7547 141.177 15.3372 141.724 16.0604C142.271 16.7844 142.544 17.7104 142.544 18.839C142.544 19.9685 142.257 20.9606 141.683 21.8162C141.11 22.6718 140.298 23.342 139.249 23.8269C138.199 24.3118 136.959 24.5551 135.531 24.5551H135.53ZM100.323 6.51077V2.35778H104.464V6.51077H100.323ZM100.323 24.5551V7.93896H104.464V24.5551H100.323ZM65.296 24.5551C63.675 24.5551 62.2452 24.21 61.0073 23.5199C59.7695 22.8298 58.8055 21.8551 58.1154 20.5949C57.4253 19.3346 57.0802 17.9826 57.0802 16.2731V15.8784C57.0802 14.1697 57.4203 12.5537 58.0988 11.2943C58.7782 10.0349 59.7314 9.05933 60.9577 8.36923C62.1848 7.67914 63.6088 7.33409 65.2298 7.33409C66.8293 7.33409 68.2202 7.68989 69.4035 8.40233C70.5868 9.11394 71.5069 10.1003 72.1639 11.3596C72.8209 12.619 73.1494 14.2135 73.1494 15.8784V17.2917H61.2862C61.33 18.4096 61.7462 19.026 62.5348 19.7269C63.3143 20.4203 64.2658 20.7711 65.3887 20.7786H65.4268L65.5401 20.7777V20.7786L66.3022 20.7794C68.6034 20.7794 67.9604 20.7777 70.1606 20.7744V24.5493C67.6402 24.5526 67.9778 24.5551 65.392 24.5551H65.3887L65.2952 24.5559L65.296 24.5551ZM61.3201 14.2036H68.9443C68.7457 12.0771 67.2778 10.9501 65.1976 10.9501C63.0396 10.9501 61.6693 12.0572 61.3201 14.2036ZM98.894 7.95964C97.1216 7.95964 95.273 7.95799 93.5569 7.95799C92.2859 7.95799 91.1746 8.28235 90.2214 8.86322C89.2682 9.44327 88.5293 10.2434 88.003 11.262C87.4767 12.2806 87.2144 13.4697 87.2144 14.8275V24.5551H91.355V15.4597C91.355 14.2334 91.6562 13.2454 92.2586 12.6323C92.7418 12.1399 93.3889 11.8379 94.2031 11.7411L94.2056 11.7395H98.894V7.96047V7.95964ZM86.2579 7.95964C84.4855 7.95964 82.637 7.95799 80.9208 7.95799C79.6499 7.95799 78.5386 8.28235 77.5854 8.86322C76.6321 9.44327 75.8924 10.2434 75.367 11.262C74.8407 12.2806 74.5784 13.4697 74.5784 14.8275V24.5551H78.719V15.4597C78.719 14.2334 79.0202 13.2454 79.6226 12.6323C80.1066 12.1399 80.7529 11.8379 81.5671 11.7411L81.5695 11.7395H86.2579V7.96047V7.95964ZM56.6342 24.5534C54.8627 24.5534 56.8527 24.5551 55.1357 24.5551C53.8648 24.5551 52.7535 24.2307 51.8003 23.6498C50.847 23.0698 50.1073 22.2696 49.5819 21.251C49.0564 20.2324 48.7933 19.0434 48.7933 17.6855V7.95799H48.8074V3.56338H52.9479V8.01425H56.2793V11.7237H52.9479V15.7228H52.933V17.0534C52.933 18.2805 53.2342 19.2676 53.8366 19.8808C54.0286 20.076 54.2462 20.2424 54.4895 20.3764C55.1581 20.7455 55.9069 20.7728 56.6334 20.7744V24.5534H56.6342ZM35.6856 7.95964C37.4572 7.95964 39.3065 7.95799 41.0227 7.95799C42.2936 7.95799 43.4049 8.28235 44.3581 8.86322C45.3114 9.44327 46.0503 10.2434 46.5765 11.262C47.1028 12.2806 47.3651 13.4697 47.3651 14.8275V24.5551H43.2245V15.4597C43.2245 14.2334 42.9233 13.2454 42.3209 12.6323C41.8377 12.1399 41.1906 11.8379 40.3764 11.7411L40.3739 11.7395H35.6856V24.5559H31.3481V11.7378H35.6856V7.96047V7.95964ZM21.244 24.5551C17.9971 24.5551 15.1316 22.8695 15.1316 19.3297C15.1316 15.7212 18.2545 14.3161 21.441 14.3161H25.7247C25.7247 12.4916 24.3991 11.7361 22.9304 11.7361L18.2396 11.7345V7.95551C20.0111 7.95551 21.8605 7.95385 23.5766 7.95385C24.8468 7.95385 25.9589 8.27821 26.9121 8.85826C27.8653 9.43913 28.6042 10.2385 29.1305 11.2579C29.6022 12.1722 29.8628 12.9393 29.9108 14.1267L29.9191 14.4113V24.1852H29.9141V24.5426C27.1703 24.546 24.3735 24.5484 21.5403 24.5509C21.4426 24.5534 21.3442 24.5542 21.2432 24.5542L21.244 24.5551ZM25.8422 17.2958V17.2933L21.604 17.2859C18.5581 17.4034 18.6458 20.9258 21.604 21.1575C23.0173 21.1575 24.4297 21.1476 25.8422 21.1451V17.2958ZM4.33834 12.1995H9.03745C10.0668 12.1995 10.8992 11.9149 11.5347 11.3456C12.1702 10.7755 12.4879 9.99849 12.4879 9.01216V8.68367C12.4879 7.69734 12.1702 6.92036 11.5347 6.35025C10.8992 5.78013 10.0668 5.49549 9.03745 5.49549H4.33834V12.1987V12.1995Z" fill="white"/>
</g>
<defs>
<clipPath id="clip0_768_4985">
<rect width="146.576" height="29.8441" fill="white"/>
</clipPath>
</defs>
</svg>
